<svg xmlns="http://www.w3.org/2000/svg" width="99.75" height="99.749" viewBox="0 0 99.75 99.749"><g transform="translate(3402.845 8575.845)"><path d="M-3318.25-8483.751a7.478,7.478,0,0,1-5.3-2.2l-84.75-84.749a7.5,7.5,0,0,1,0-10.607,7.5,7.5,0,0,1,10.606,0l84.75,84.749a7.5,7.5,0,0,1,0,10.607A7.478,7.478,0,0,1-3318.25-8483.751Z" transform="translate(7.655 7.655)"/><path d="M-3403-8483.751a7.478,7.478,0,0,1-5.3-2.2,7.5,7.5,0,0,1,0-10.607l84.75-84.749a7.5,7.5,0,0,1,10.606,0,7.5,7.5,0,0,1,0,10.607l-84.75,84.749A7.479,7.479,0,0,1-3403-8483.751Z" transform="translate(7.655 7.655)"/></g></svg>