<?xml version="1.0" encoding="UTF-8"?>
<svg id="Layer_2" data-name="Layer 2" xmlns="http://www.w3.org/2000/svg" viewBox="0 0 202.42 69.3">
  <defs>
    <style>
      .cls-1 {
        stroke: #231f20;
        stroke-width: .44px;
      }

      .cls-1, .cls-2 {
        fill: none;
      }

      .cls-1, .cls-2, .cls-3 {
        stroke-miterlimit: 10;
      }

      .cls-2 {
        stroke: #fff;
      }

      .cls-3 {
        fill: #fff;
        stroke: #000;
        stroke-width: .35px;
      }
    </style>
  </defs>
  <g id="Layer_1-2" data-name="Layer 1">
    <g>
      <path class="cls-3" d="M15.83,29.46c1.2-2.24,2.71-3.86,4.53-4.87s3.92-1.35,6.31-1.04c3,.39,5.31,1.71,6.91,3.95,1.61,2.25,2.24,5.09,1.91,8.54l-21.17-2.8c.4-1.4.91-2.67,1.51-3.78ZM45.81,50.5l-11.27-1.5c-1.05,2.3-2.59,3.99-4.61,5.1s-4.44,1.47-7.26,1.1c-2.45-.32-4.45-1.21-6-2.66-1.55-1.46-2.61-3.4-3.16-5.84-.36-1.6-.51-3.4-.44-5.39l32.28,4.26,2.59.34c1.14-3.9,1.47-7.64,1.02-11.22-.47-3.59-1.59-6.84-3.39-9.76-.72-1.16-1.52-2.24-2.43-3.23-1.35-1.51-2.92-2.82-4.71-3.94-2.97-1.85-6.38-3.04-10.24-3.55-4.72-.62-9.06-.09-13.03,1.6-3.96,1.69-7.24,4.3-9.82,7.83-2.59,3.52-4.21,7.73-4.85,12.63-.68,5.09-.25,9.7,1.25,13.82,1.51,4.13,3.98,7.49,7.41,10.1,3.43,2.61,7.6,4.24,12.49,4.89,6.01.79,11.24-.08,15.69-2.61,3.72-2.11,6.62-5.2,8.73-9.27.41-.8.8-1.63,1.15-2.51l-1.4-.18h0"/>
      <path class="cls-3" d="M59.4,64.55l-12.18,1.13-5.63-60.7c-.09-.97.62-1.82,1.59-1.91l10.43-.97,5.79,62.45Z"/>
      <path class="cls-3" d="M55.68,37.11c.4-4.58,1.61-8.63,3.63-12.14,2.03-3.51,4.68-6.17,7.97-7.99,3.28-1.82,6.99-2.55,11.11-2.2,2.78.24,5.29,1.04,7.51,2.4,2.09,1.28,3.88,3.03,5.37,5.24.09.14.3.09.32-.08l1.71-19.78c.08-.97.93-1.68,1.9-1.6l8.51.74c.97.08,1.68.93,1.6,1.9l-5.1,58.99c-.08.97-.93,1.68-1.9,1.6l-7.56-.65c-.97-.08-1.68-.93-1.6-1.9l.39-4.46c.01-.16-.18-.25-.3-.13-1.98,2.04-4.19,3.59-6.62,4.65-2.58,1.12-5.38,1.55-8.4,1.29-4.12-.36-7.64-1.73-10.56-4.11-2.92-2.39-5.08-5.48-6.48-9.28-1.4-3.8-1.9-7.97-1.51-12.49ZM68.13,38.18c-.38,4.35.41,7.75,2.36,10.2,1.95,2.45,4.41,3.8,7.36,4.06,2.03.18,3.92-.19,5.66-1.09s3.19-2.31,4.35-4.23c1.16-1.92,1.86-4.32,2.11-7.23.25-2.9-.05-5.38-.89-7.44-.84-2.06-2.05-3.65-3.62-4.78-1.57-1.13-3.34-1.78-5.31-1.95-2.96-.26-5.61.64-7.95,2.69-2.34,2.05-3.7,5.31-4.09,9.77Z"/>
      <path class="cls-3" d="M137.11,59.99l-.66-4.28c-.03-.17-.24-.2-.32-.05-1.32,2.49-3.13,4.54-5.42,6.13-2.44,1.7-5.48,2.83-9.1,3.39-5.48.85-10.13.05-13.95-2.4-3.82-2.45-6.12-6.15-6.89-11.09-.8-5.15.64-9.39,4.31-12.73,3.67-3.34,9.33-5.6,16.99-6.79,1.52-.23,2.98-.41,4.38-.53,1.34-.11,2.78-.19,4.32-.24.11,0,.19-.1.17-.2l-.46-2.97c-.46-2.97-1.61-5.15-3.45-6.56-1.84-1.4-4.21-1.88-7.11-1.43-2.97.46-5.18,1.65-6.64,3.56-1.22,1.59-1.86,3.57-1.92,5.92-.02.85-.64,1.58-1.48,1.71l-8.94,1.39c-1.05.16-2.01-.64-2.03-1.7-.06-3.34.54-6.4,1.77-9.16,1.48-3.3,3.73-6.03,6.74-8.19,3.01-2.15,6.63-3.56,10.85-4.22,6.93-1.07,12.6-.09,17.02,2.94,4.42,3.03,7.13,7.78,8.14,14.24l4.89,31.52c.15.96-.51,1.85-1.47,2l-7.72,1.2c-.96.15-1.85-.51-2-1.47ZM113.66,49.29c.34,2.18,1.35,3.81,3.04,4.9s3.82,1.43,6.39,1.04c3.5-.54,6.11-1.87,7.84-4,1.73-2.13,2.36-4.71,1.89-7.74l-.56-3.61c-.01-.09-.09-.15-.18-.15-1.56-.01-2.96.03-4.19.12-1.27.1-2.5.24-3.69.42-3.83.59-6.64,1.64-8.43,3.13-1.8,1.49-2.5,3.46-2.12,5.9Z"/>
      <path class="cls-3" d="M144.69,30.73c1.38-4.56,3.48-8.4,6.29-11.51,2.81-3.12,6.07-5.25,9.79-6.39,3.72-1.14,7.62-1.09,11.72.16,2.77.84,5.13,2.19,7.09,4.05,1.85,1.75,3.29,3.91,4.33,6.48.06.15.28.15.33,0l6-19.74c.28-.93,1.26-1.45,2.19-1.17l8.59,2.61c.93.28,1.45,1.26,1.17,2.19l-17.86,58.78c-.28.93-1.26,1.45-2.19,1.17l-7.63-2.32c-.93-.28-1.45-1.26-1.17-2.19l1.37-4.52c.05-.16-.13-.28-.26-.19-2.45,1.65-5.02,2.75-7.72,3.3-2.86.58-5.78.42-8.78-.49-4.1-1.24-7.37-3.39-9.82-6.43-2.45-3.04-3.97-6.64-4.57-10.79-.6-4.15-.21-8.48,1.15-12.98ZM157.07,34.49c-1.31,4.33-1.25,7.94.2,10.84,1.45,2.9,3.65,4.79,6.59,5.69,2.02.61,4.01.65,5.97.11,1.96-.54,3.73-1.66,5.32-3.35,1.59-1.69,2.82-3.98,3.69-6.87.88-2.88,1.11-5.46.69-7.73-.41-2.27-1.29-4.14-2.64-5.62-1.35-1.48-3-2.52-4.96-3.12-2.94-.89-5.82-.55-8.63,1.02-2.81,1.57-4.89,4.58-6.24,9.02Z"/>
      <path class="cls-1" d="M187.96,61.95l-1.44,4.32c-.63,1.89-2.2,3.45-5.41,2.55l-4.44-1.42"/>
      <path class="cls-2" d="M39.8,9.6l-.51-4.52c-.22-1.98.55-4.06,3.85-4.59"/>
      <path class="cls-2" d="M111.05,9.72c2.35-1.64,5.16-2.64,8.39-3.2,4.35-.75,9.01.54,10.63,1.5"/>
      <path class="cls-2" d="M18.17,66.95c4.73,1.5,9.05,1.59,12.98.25"/>
    </g>
  </g>
</svg>